<svg xmlns="http://www.w3.org/2000/svg" viewBox="0 0 64 64">
  <defs>
    <linearGradient id="g" x1="0" y1="0" x2="1" y2="0">
      <stop offset="0%" stop-color="#ffdf8a"/>
      <stop offset="50%" stop-color="#f5a800"/>
      <stop offset="100%" stop-color="#c07f00"/>
    </linearGradient>
    <linearGradient id="s" x1="0" y1="0" x2="1" y2="0">
      <stop offset="0%" stop-color="#ffffff"/>
      <stop offset="60%" stop-color="#c9ccd6"/>
      <stop offset="100%" stop-color="#7e8290"/>
    </linearGradient>
  </defs>
  <rect width="64" height="64" rx="14" fill="#06060a"/>
  <path d="M6 36 C12 26 22 20 34 18 C22 26 14 32 10 39 Z" fill="url(#g)"/>
  <path d="M12 31 C26 15 44 13 58 27 C48 19 34 19 24 25 C19 27 15 29 12 31 Z" fill="url(#g)"/>
  <path d="M14 42 C28 34 40 32 46 33 C48 29 52 27 55 28 C53 30 51 32 50 34 C54 36 57 39 59 43 C48 37 32 38 14 42 Z" fill="url(#s)"/>
  <path d="M8 48 C18 43 28 41 36 40 C26 44 16 47 10 51 Z" fill="url(#g)" opacity="0.9"/>
</svg>
